<svg width="246" height="66" viewBox="0 0 246 66" fill="none" xmlns="http://www.w3.org/2000/svg">
<ellipse cx="39.5" cy="33.0069" rx="1.5" ry="1.47643" fill="#99C343"/>
<ellipse cx="32.5" cy="33.007" rx="2.5" ry="2.46072" fill="#A0E418"/>
<ellipse cx="1.49414" cy="1.48236" rx="1.49414" ry="1.48236" transform="matrix(0.86942 0.494073 -0.505951 0.862562 40.9297 22.54)" fill="#99C343"/>
<ellipse cx="2.49024" cy="2.4706" rx="2.49024" ry="2.4706" transform="matrix(0.86942 0.494073 -0.505951 0.862562 34.5 17.7505)" fill="#A0E418"/>
<ellipse cx="1.49414" cy="1.48236" rx="1.49414" ry="1.48236" transform="matrix(0.86942 -0.494073 -0.505951 -0.862562 40.9297 43.3066)" fill="#99C343"/>
<ellipse cx="2.49024" cy="2.4706" rx="2.49024" ry="2.4706" transform="matrix(0.86942 -0.494073 -0.505951 -0.862562 34.5 48.0962)" fill="#A0E418"/>
<ellipse cx="1.48236" cy="1.49414" rx="1.48236" ry="1.49414" transform="matrix(0.505951 0.862562 -0.869421 0.494073 48.4648 16.2034)" fill="#99C343"/>
<ellipse cx="2.4706" cy="2.49024" rx="2.4706" ry="2.49024" transform="matrix(0.505951 0.862562 -0.869421 0.494073 45.332 8.89185)" fill="#A0E418"/>
<ellipse cx="1.48236" cy="1.49414" rx="1.48236" ry="1.49414" transform="matrix(0.505951 -0.862562 -0.869421 -0.494073 48.4648 49.6432)" fill="#99C343"/>
<ellipse cx="2.4706" cy="2.49024" rx="2.4706" ry="2.49024" transform="matrix(0.505951 -0.862562 -0.869421 -0.494073 45.332 56.9547)" fill="#A0E418"/>
<ellipse cx="56.5" cy="16.274" rx="1.47643" ry="1.5" transform="rotate(90 56.5 16.274)" fill="#99C343"/>
<ellipse cx="56.5" cy="9.38406" rx="2.46072" ry="2.5" transform="rotate(90 56.5 9.38406)" fill="#A0E418"/>
<ellipse cx="1.47643" cy="1.5" rx="1.47643" ry="1.5" transform="matrix(-4.44092e-08 -1 -1 4.30246e-08 58 51.0491)" fill="#99C343"/>
<ellipse cx="2.46072" cy="2.5" rx="2.46072" ry="2.5" transform="matrix(-4.44092e-08 -1 -1 4.30246e-08 59 58.9233)" fill="#A0E418"/>
<ellipse cx="1.48236" cy="1.49414" rx="1.48236" ry="1.49414" transform="matrix(-0.505951 0.862562 -0.86942 -0.494073 67.9648 17.6798)" fill="#99C343"/>
<ellipse cx="2.4706" cy="2.49024" rx="2.4706" ry="2.49024" transform="matrix(-0.505951 0.862562 -0.86942 -0.494073 72.832 11.3527)" fill="#A0E418"/>
<ellipse cx="1.48236" cy="1.49414" rx="1.48236" ry="1.49414" transform="matrix(-0.505951 -0.862562 -0.86942 0.494073 67.9648 48.1669)" fill="#99C343"/>
<ellipse cx="2.4706" cy="2.49024" rx="2.4706" ry="2.49024" transform="matrix(-0.505951 -0.862562 -0.86942 0.494073 72.832 54.494)" fill="#A0E418"/>
<ellipse cx="1.49414" cy="1.48236" rx="1.49414" ry="1.48236" transform="matrix(-0.86942 0.494073 -0.505951 -0.862562 73.5977 25.0973)" fill="#99C343"/>
<ellipse cx="2.49024" cy="2.4706" rx="2.49024" ry="2.4706" transform="matrix(-0.86942 0.494073 -0.505951 -0.862562 81.0273 22.0126)" fill="#A0E418"/>
<ellipse cx="1.49414" cy="1.48236" rx="1.49414" ry="1.48236" transform="matrix(-0.86942 -0.494073 -0.505951 0.862562 73.5977 40.7494)" fill="#99C343"/>
<ellipse cx="2.49024" cy="2.4706" rx="2.49024" ry="2.4706" transform="matrix(-0.86942 -0.494073 -0.505951 0.862562 81.0273 43.8341)" fill="#A0E418"/>
<path d="M95.7953 32.7473L97.4913 32.2353C98.2913 34.2833 99.2833 37.0033 99.6993 38.5393L97.9393 39.2433C97.5233 37.5793 96.5953 34.8273 95.7953 32.7473ZM88.8833 32.0433C88.7553 31.5633 88.4033 30.4753 88.1473 29.8673C88.6593 29.7393 89.2353 29.0993 89.8433 28.1073C90.5153 27.1793 92.6593 23.5313 93.9073 20.0753L96.1153 20.9713C94.5153 24.4913 92.4033 28.2353 90.3553 30.7633V30.7953C90.3553 30.7953 88.8833 31.5633 88.8833 32.0433ZM88.8833 32.0433L88.8193 30.2833L89.9713 29.6113L95.6353 29.1313C95.5393 29.7073 95.4433 30.5393 95.4753 31.0193C90.2913 31.6273 89.3953 31.7873 88.8833 32.0433ZM89.1073 39.2433C88.9793 38.7953 88.6273 37.7073 88.3713 37.0993C89.0113 36.9713 89.7473 36.1393 90.7073 34.9233C91.7633 33.7713 95.0913 29.1313 97.2033 24.7473L99.2193 25.8993C96.7553 30.3473 93.6193 34.8593 90.5793 38.0273V38.0913C90.5793 38.0913 89.1073 38.7953 89.1073 39.2433ZM89.1073 39.2433L89.0113 37.5153L90.1313 36.7793L98.4193 35.6273C98.3553 36.2033 98.3233 37.0353 98.3553 37.4833C90.7713 38.6673 89.7473 38.9233 89.1073 39.2433ZM92.8193 40.8753L94.6113 40.5233C94.9953 42.6353 95.3473 45.3233 95.4753 47.1473L93.6193 47.5953C93.5553 45.7393 93.2033 42.9873 92.8193 40.8753ZM89.5553 40.6513L91.5073 41.0673C91.1233 43.6593 90.4513 46.6993 89.9393 48.6513C89.4913 48.4593 88.5633 48.2033 88.0513 48.0753C88.6913 46.0913 89.2353 43.1793 89.5553 40.6513ZM96.1473 40.2353L97.8113 39.6913C98.4833 41.5153 99.2513 43.8833 99.5713 45.3873L97.8113 45.9953C97.5233 44.4593 96.7873 42.0593 96.1473 40.2353ZM103.699 22.6673H112.563V24.5873H103.699V22.6673ZM102.579 27.5633H111.763V29.4833H102.579V27.5633ZM99.2833 31.9473H117.619V34.0913H99.2833V31.9473ZM103.379 20.0433L105.619 20.2993C104.947 23.3073 103.955 27.1473 103.251 29.4833H100.883C101.715 27.0193 102.739 23.0193 103.379 20.0433ZM111.827 22.6673H112.083L112.467 22.5393L114.131 22.7953C113.651 25.7073 112.787 29.7393 112.083 32.8113L109.843 32.5233C110.611 29.4513 111.443 25.1313 111.827 22.9553V22.6673ZM107.251 33.2593H109.459V46.9873C109.459 48.2033 109.235 48.8113 108.403 49.1313C107.571 49.4833 106.291 49.5153 104.403 49.5153C104.307 48.9073 103.955 48.0113 103.667 47.4033C105.075 47.4673 106.355 47.4353 106.739 47.4353C107.123 47.4033 107.251 47.3073 107.251 46.9553V33.2593ZM115.027 34.9873L116.819 36.2353C115.411 37.7073 113.715 39.3073 112.339 40.3313L110.867 39.2433C112.179 38.1233 114.003 36.2993 115.027 34.9873ZM100.275 36.1713L101.875 35.0513C103.219 36.3633 104.883 38.1553 105.651 39.3073L103.955 40.5873C103.187 39.4033 101.619 37.5153 100.275 36.1713ZM98.9953 45.1633C100.595 44.2033 102.931 42.6993 105.235 41.1633L105.971 42.9553C104.051 44.3313 102.003 45.7393 100.243 46.8593L98.9953 45.1633ZM110.387 42.5713L111.635 41.0673C113.651 42.3473 116.243 44.2353 117.523 45.4513L116.211 47.2113C114.963 45.9313 112.403 43.9473 110.387 42.5713ZM128.531 42.1873H130.867V46.3153C130.867 47.0513 131.155 47.2113 132.819 47.2113C133.587 47.2113 137.459 47.2113 138.483 47.2113C139.859 47.2113 140.051 46.8273 140.211 43.9793C140.723 44.2993 141.683 44.6193 142.291 44.7793C142.035 48.3633 141.299 49.2273 138.707 49.2273C138.003 49.2273 133.331 49.2273 132.659 49.2273C129.363 49.2273 128.531 48.6193 128.531 46.3153V42.1873ZM132.051 41.5473L133.459 40.2353C135.251 41.1313 137.459 42.6033 138.579 43.6593L137.043 45.1313C136.019 44.0753 133.843 42.5393 132.051 41.5473ZM142.707 42.4753L144.627 41.5793C146.259 43.2433 148.083 45.5473 148.851 47.1473L146.803 48.1393C146.099 46.5713 144.339 44.2033 142.707 42.4753ZM124.819 41.9313L126.803 42.7953C125.875 44.7473 124.595 47.1473 122.963 48.6513L120.979 47.4993C122.579 46.0913 123.987 43.7873 124.819 41.9313ZM122.771 22.4113H147.187V24.3633H122.771V22.4113ZM121.331 27.5953H148.851V29.5473H121.331V27.5953ZM127.603 24.8433L129.811 24.3313C130.419 25.3233 131.027 26.6993 131.251 27.5953L128.947 28.2033C128.755 27.2753 128.211 25.8673 127.603 24.8433ZM140.211 24.2353L142.643 24.7793C141.939 26.1873 141.235 27.5633 140.563 28.5873L138.451 28.0113C139.059 26.9553 139.827 25.3233 140.211 24.2353ZM127.379 36.6193V38.8273H142.771V36.6193H127.379ZM127.379 32.8113V35.0193H142.771V32.8113H127.379ZM125.075 31.1473H145.139V40.4913H125.075V31.1473ZM133.171 20.2993L135.475 19.7873C136.211 20.8113 136.947 22.2513 137.235 23.2113L134.803 23.8193C134.547 22.8593 133.843 21.3873 133.171 20.2993ZM164.723 31.1793V33.1953H177.843V31.1793H164.723ZM164.723 27.7233V29.7073H177.843V27.7233H164.723ZM162.515 26.2193H180.147V34.7313H162.515V26.2193ZM160.947 36.8113C165.491 36.8113 172.563 36.6833 179.251 36.5233L179.187 38.2513C172.691 38.4433 165.875 38.6673 161.171 38.7633L160.947 36.8113ZM175.219 35.0513L176.851 34.0913C178.675 35.3713 180.883 37.2593 181.939 38.5393L180.211 39.6273C179.187 38.3473 177.043 36.3953 175.219 35.0513ZM170.035 20.2993H172.371V37.5153L170.035 37.7073V20.2993ZM160.307 40.4593H181.747V42.4113H160.307V40.4593ZM174.899 37.7073H177.235V46.9553C177.235 48.2673 176.947 48.8753 175.955 49.1953C174.963 49.5473 173.363 49.5153 170.899 49.5153C170.771 48.9073 170.451 48.0753 170.163 47.4673C172.115 47.5313 173.747 47.5313 174.291 47.4673C174.771 47.4673 174.899 47.3393 174.899 46.9233V37.7073ZM163.731 43.5313L165.491 42.4113C166.995 43.6273 168.755 45.3873 169.619 46.5713L167.731 47.8833C166.963 46.6673 165.235 44.8113 163.731 43.5313ZM161.203 22.5393H181.427V24.3953H161.203V22.5393ZM159.475 20.1713L161.747 20.8753C159.635 26.3153 156.339 31.7233 152.883 35.3073C152.627 34.7633 151.955 33.4833 151.507 32.9393C154.675 29.8353 157.683 25.0353 159.475 20.1713ZM156.147 28.4273L158.387 26.1553L158.451 26.1873V49.4513H156.147V28.4273ZM211.187 20.2673L212.531 22.0273C207.987 23.0513 200.787 23.6593 194.867 23.8513C194.835 23.3393 194.547 22.5393 194.323 22.0593C200.147 21.7713 207.251 21.1633 211.187 20.2673ZM193.811 28.8113H213.523V30.7313H193.811V28.8113ZM202.451 22.1233H204.659V36.1713H202.451V22.1233ZM202.547 37.6113H204.563V47.0513H202.547V37.6113ZM196.499 24.6513L198.451 24.0433C199.123 25.2273 199.955 26.8273 200.339 27.7873L198.355 28.5233C197.971 27.5313 197.203 25.8673 196.499 24.6513ZM208.947 23.5313L211.059 24.1393C210.163 26.0913 209.139 28.3313 208.307 29.8033L206.515 29.1633C207.315 27.6593 208.435 25.1953 208.947 23.5313ZM201.107 29.8993L203.027 30.6033C201.075 33.8033 197.427 36.8433 194.131 38.3793C193.811 37.8353 193.139 37.0353 192.627 36.6193C195.827 35.3393 199.315 32.6513 201.107 29.8993ZM195.731 36.9073H211.827V49.3233H209.587V38.8273H197.875V49.5153H195.731V36.9073ZM197.267 41.5793H210.195V43.3713H197.267V41.5793ZM197.267 46.3153H210.131V48.1393H197.267V46.3153ZM183.891 36.9073C186.323 36.0753 190.035 34.7313 193.587 33.4193L193.971 35.5953C190.675 36.9073 187.155 38.2193 184.403 39.2113L183.891 36.9073ZM184.339 26.5073H194.067V28.7473H184.339V26.5073ZM188.371 20.0753H190.611V46.6993C190.611 48.0433 190.291 48.6833 189.491 49.0673C188.755 49.4513 187.507 49.5153 185.491 49.5153C185.395 48.9393 185.107 47.9473 184.787 47.2753C186.195 47.3073 187.411 47.3073 187.795 47.2753C188.179 47.2753 188.371 47.1793 188.371 46.6993V20.0753ZM203.891 31.0193L205.203 29.7073C208.211 31.5313 212.115 34.2833 214.035 36.1073L212.627 37.6433C210.771 35.7873 206.963 32.9713 203.891 31.0193Z" fill="white"/>
</svg>
