<svg width="702" height="716" viewBox="0 0 702 716" fill="none" xmlns="http://www.w3.org/2000/svg">
<ellipse cx="20.6359" cy="20.3117" rx="20.6359" ry="20.3117" transform="matrix(-1 0 0 1 591.945 338.532)" fill="#99C343" fill-opacity="0.15"/>
<ellipse cx="34.3932" cy="33.8528" rx="34.3932" ry="33.8528" transform="matrix(-1 0 0 1 702 324.99)" fill="#A0E418" fill-opacity="0.15"/>
<ellipse cx="20.5554" cy="20.3932" rx="20.5554" ry="20.3932" transform="matrix(-0.86942 0.494073 0.505951 0.862562 551.641 214.845)" fill="#99C343" fill-opacity="0.15"/>
<ellipse cx="34.2589" cy="33.9887" rx="34.2589" ry="33.9887" transform="matrix(-0.86942 0.494073 0.505951 0.862562 640.094 148.953)" fill="#A0E418" fill-opacity="0.15"/>
<ellipse cx="20.5554" cy="20.3932" rx="20.5554" ry="20.3932" transform="matrix(-0.86942 -0.494073 0.505951 -0.862562 551.641 500.536)" fill="#99C343" fill-opacity="0.15"/>
<ellipse cx="34.2589" cy="33.9887" rx="34.2589" ry="33.9887" transform="matrix(-0.86942 -0.494073 0.505951 -0.862562 640.094 566.428)" fill="#A0E418" fill-opacity="0.15"/>
<ellipse cx="20.3932" cy="20.5554" rx="20.3932" ry="20.5554" transform="matrix(-0.505951 0.862562 0.869421 0.494073 447.969 127.672)" fill="#99C343" fill-opacity="0.15"/>
<ellipse cx="33.9887" cy="34.2589" rx="33.9887" ry="34.2589" transform="matrix(-0.505951 0.862562 0.869421 0.494073 491.07 27.085)" fill="#A0E418" fill-opacity="0.15"/>
<ellipse cx="20.3932" cy="20.5554" rx="20.3932" ry="20.5554" transform="matrix(-0.505951 -0.862562 0.869421 -0.494073 447.969 587.708)" fill="#99C343" fill-opacity="0.15"/>
<ellipse cx="33.9887" cy="34.2589" rx="33.9887" ry="34.2589" transform="matrix(-0.505951 -0.862562 0.869421 -0.494073 491.07 688.295)" fill="#A0E418" fill-opacity="0.15"/>
<ellipse cx="20.3117" cy="20.6359" rx="20.3117" ry="20.6359" transform="matrix(4.44092e-08 1 1 -4.30246e-08 316.789 108.332)" fill="#99C343" fill-opacity="0.15"/>
<ellipse cx="33.8528" cy="34.3932" rx="33.8528" ry="34.3932" transform="matrix(4.37114e-08 1 1 -4.37114e-08 303.031 0)" fill="#A0E418" fill-opacity="0.15"/>
<ellipse cx="337.425" cy="586.736" rx="20.3117" ry="20.6359" transform="rotate(-90 337.425 586.736)" fill="#99C343" fill-opacity="0.15"/>
<ellipse cx="337.424" cy="681.527" rx="33.8528" ry="34.3932" transform="rotate(-90 337.424 681.527)" fill="#A0E418" fill-opacity="0.15"/>
<ellipse cx="20.3932" cy="20.5554" rx="20.3932" ry="20.5554" transform="matrix(0.505951 0.862562 0.86942 -0.494073 179.711 147.979)" fill="#99C343" fill-opacity="0.15"/>
<ellipse cx="33.9887" cy="34.2589" rx="33.9887" ry="34.2589" transform="matrix(0.505951 0.862562 0.86942 -0.494073 112.75 60.9346)" fill="#A0E418" fill-opacity="0.15"/>
<ellipse cx="20.3932" cy="20.5554" rx="20.3932" ry="20.5554" transform="matrix(0.505951 -0.862562 0.86942 0.494073 179.711 567.402)" fill="#99C343" fill-opacity="0.15"/>
<ellipse cx="33.9887" cy="34.2589" rx="33.9887" ry="34.2589" transform="matrix(0.505951 -0.862562 0.86942 0.494073 112.75 654.446)" fill="#A0E418" fill-opacity="0.15"/>
<ellipse cx="20.5554" cy="20.3932" rx="20.5554" ry="20.3932" transform="matrix(0.86942 0.494073 0.505951 -0.862562 102.211 250.029)" fill="#99C343" fill-opacity="0.15"/>
<ellipse cx="34.2589" cy="33.9887" rx="34.2589" ry="33.9887" transform="matrix(0.86942 0.494073 0.505951 -0.862562 0 207.589)" fill="#A0E418" fill-opacity="0.15"/>
<ellipse cx="20.5554" cy="20.3932" rx="20.5554" ry="20.3932" transform="matrix(0.86942 -0.494073 0.505951 0.862562 102.211 465.351)" fill="#99C343" fill-opacity="0.15"/>
<ellipse cx="34.2589" cy="33.9887" rx="34.2589" ry="33.9887" transform="matrix(0.86942 -0.494073 0.505951 0.862562 0 507.791)" fill="#A0E418" fill-opacity="0.15"/>
</svg>
